<?xml version="1.0" encoding="UTF-8" standalone="no"?><!DOCTYPE svg PUBLIC "-//W3C//DTD SVG 1.1//EN" "http://www.w3.org/Graphics/SVG/1.1/DTD/svg11.dtd"><svg width="100%" height="100%" viewBox="0 0 55 20" version="1.1" xmlns="http://www.w3.org/2000/svg" xmlns:xlink="http://www.w3.org/1999/xlink" xml:space="preserve" style="fill-rule:evenodd;clip-rule:evenodd;stroke-linejoin:round;stroke-miterlimit:1.41421;"><g><path d="M0.065,10c0,-5.971 4.58,-10 10.638,-10c5.072,0 7.623,2.956 8.782,5.623l-5.043,2.348c-0.493,-1.507 -2,-2.812 -3.739,-2.812c-2.812,0 -4.696,2.145 -4.696,4.841c0,2.696 1.884,4.841 4.696,4.841c1.739,0 3.246,-1.305 3.739,-2.812l5.043,2.319c-1.13,2.579 -3.71,5.652 -8.782,5.652c-6.058,0 -10.638,-4.058 -10.638,-10" style="fill-rule:nonzero;"/><path d="M19.833,16.928l3.044,-4.348c1.449,1.391 3.623,2.493 6.232,2.493c1.101,0 2.145,-0.29 2.145,-1.044c0,-1.855 -10.783,0.029 -10.783,-7.594c0,-3.275 2.725,-6.406 8.029,-6.406c3.159,0 6,0.899 8.203,2.696l-3.13,4.145c-1.682,-1.276 -3.856,-1.913 -5.682,-1.913c-1.159,0 -1.478,0.377 -1.478,0.869c0,1.826 10.754,0.261 10.754,7.449c0,4.261 -3.16,6.725 -8.348,6.725c-4.116,0 -6.928,-1.217 -8.986,-3.072" style="fill-rule:nonzero;"/><path d="M37.601,16.928l3.044,-4.348c1.449,1.391 3.623,2.493 6.232,2.493c1.101,0 2.144,-0.29 2.144,-1.044c0,-1.855 -10.782,0.029 -10.782,-7.594c0,-3.275 2.725,-6.406 8.029,-6.406c3.159,0 6,0.899 8.203,2.696l-3.131,4.145c-1.681,-1.276 -3.855,-1.913 -5.681,-1.913c-1.159,0 -1.478,0.377 -1.478,0.869c0,1.826 10.754,0.261 10.754,7.449c0,4.261 -3.16,6.725 -8.348,6.725c-4.116,0 -6.928,-1.217 -8.986,-3.072" style="fill-rule:nonzero;"/></g></svg>