<?xml version="1.0" encoding="UTF-8"?>
<svg width="538px" height="174px" viewBox="0 0 538 174" version="1.1" xmlns="http://www.w3.org/2000/svg" xmlns:xlink="http://www.w3.org/1999/xlink" xmlns:sketch="http://www.bohemiancoding.com/sketch/ns">
    <!-- Generator: Sketch 3.1.1 (8761) - http://www.bohemiancoding.com/sketch -->
    <title>cssday 02</title>
    <desc>Created with Sketch.</desc>
    <defs></defs>
    <g id="Page-10" stroke="none" stroke-width="1" fill="none" fill-rule="evenodd" sketch:type="MSPage">
        <g id="cssday-02" sketch:type="MSLayerGroup" transform="translate(0.000000, 1.000000)">
            <path d="M140.252,69.8877 L177.283,32.8557 L144.342,-0.0853 L74.352,69.9057 L74.463,70.0157 L74.352,70.1277 L107.162,102.9407 L70.244,139.8607 L103.185,172.8007 L140.104,135.8817 L140.234,136.0107 L173.174,103.0687 L173.045,102.9407 L173.174,102.8097 L140.252,69.8877 Z" id="Fill-419" fill="#1A171B" sketch:type="MSShapeGroup"></path>
            <path d="M98.915,36.9766 L65.986,4.0576 L0.093,69.8326 L0.119,69.8596 L0.083,69.8956 L65.975,135.7146 L98.915,102.7746 L66,69.8596 L98.915,36.9766 Z" id="Fill-420" fill="#1A171B" sketch:type="MSShapeGroup"></path>
            <path d="M215.2344,69.8877 L252.2644,32.8557 L219.3244,-0.0853 L149.3344,69.9057 L149.4434,70.0157 L149.3344,70.1277 L182.1444,102.9407 L145.2254,139.8607 L178.1664,172.8007 L215.0854,135.8817 L215.2144,136.0107 L248.1564,103.0687 L248.0254,102.9407 L248.1564,102.8097 L215.2344,69.8877 Z" id="Fill-421" fill="#1A171B" sketch:type="MSShapeGroup"></path>
            <path d="M223.9502,69.9053 L256.8792,36.9873 L322.7722,102.7623 L322.7462,102.7883 L322.7822,102.8243 L256.8902,168.6433 L223.9502,135.7033 L256.8652,102.7883 L223.9502,69.9053 Z" id="Fill-422" fill="#FFFFFF" sketch:type="MSShapeGroup"></path>
            <path d="M471.9697,167.8506 L472.0057,167.8136 L472.0317,167.8406 L491.5837,148.2526 L471.9667,167.8466 L471.9697,167.8506 Z" id="Fill-423" fill="#FFFFFF" sketch:type="MSShapeGroup"></path>
            <path d="M504.959,134.8193 L504.977,134.8353 L537.807,101.9463 L504.889,69.0183 L472.036,101.9033 L504.986,134.7943 L504.959,134.8193 Z" id="Fill-424" fill="#F45656" sketch:type="MSShapeGroup"></path>
            <path d="M406.168,101.9404 L406.15,101.9584 L439.026,134.8704 L439.078,134.8194 L406.168,101.9404 Z" id="Fill-425" fill="#FFFFFF" sketch:type="MSShapeGroup"></path>
            <path d="M472.0361,101.9033 L439.0911,69.0183 L472.0061,101.9323 L472.0361,101.9033 Z" id="Fill-426" fill="#FFFFFF" sketch:type="MSShapeGroup"></path>
            <path d="M406.1631,167.7334 L471.9671,167.8464 L439.0261,134.8704 L406.1631,167.7334 Z" id="Fill-427" fill="#F45656" sketch:type="MSShapeGroup"></path>
            <path d="M504.9766,134.835 L491.5836,148.253 L504.9966,134.855 L504.9766,134.835 Z" id="Fill-428" fill="#FFFFFF" sketch:type="MSShapeGroup"></path>
            <path d="M406.1631,101.9365 L406.1681,101.9405 L439.0911,69.0185 L406.1631,101.9365 Z" id="Fill-429" fill="#FFFFFF" sketch:type="MSShapeGroup"></path>
            <path d="M504.959,134.8193 L504.986,134.7943 L472.036,101.9033 L472.006,101.9323 L439.091,69.0183 L406.168,101.9403 L439.078,134.8193 L439.026,134.8703 L471.967,167.8463 L491.584,148.2533 L504.977,134.8353 L504.959,134.8193 Z" id="Fill-430" fill="#F45656" sketch:type="MSShapeGroup"></path>
            <path d="M332.0293,167.6084 L299.1113,134.6804 L364.8863,68.7864 L364.9123,68.8124 L364.9473,68.7764 L430.7673,134.6684 L397.8263,167.6084 L364.9123,134.6934 L332.0293,167.6084 Z" id="Fill-431" fill="#F45656" sketch:type="MSShapeGroup"></path>
            <path d="M225.0039,70.7949 L257.9319,37.8769 L323.8259,103.6519 L323.7999,103.6779 L323.8359,103.7139 L257.9439,169.5329 L225.0039,136.5929 L257.9189,103.6779 L225.0039,70.7949 Z" id="Fill-432" fill="#F45656" sketch:type="MSShapeGroup"></path>
        </g>
    </g>
</svg>