<svg xmlns="http://www.w3.org/2000/svg" width="566.93" height="276" viewBox="0 0 566.93 276"><path fill="none" d="M103.788 243.401l-6.807-41.238-28.116 2.566-6.314 38.672H46.767v-36.303h-8.682l-.296 36.303H23.286L5.604 77.28l20.346 64.802 107.138-51.793 18.646-41.198-14.503-45.52 28.709 32.261V12.944l20.718 20.224 106.351 1.085v123.12l-111.283 13.418-32.754 72.61h-19.336l.492-45.38-12.331 4.341v41.039h-16.968"/><g stroke="#000"><path d="M310.215 33.083h41.229c19.863 0 34.218 11.017 34.218 30.045 0 11.517-5.675 20.698-14.688 25.371v.334c12.352 3.672 19.362 15.356 19.362 28.542 0 22.2-17.192 33.55-37.89 33.55h-42.23V33.083zm41.228 49.575c10.683 0 17.359-7.511 17.359-17.86s-6.343-17.359-17.693-17.359H326.74v35.219h24.703zm1.836 53.913c12.686 0 20.197-8.012 20.197-20.03s-8.012-20.197-20.364-20.197H326.74v40.227h26.539zM421.885 33.083h16.524v117.843h-16.524V33.083zM501.504 47.438H461.11V33.083h97.312v14.355h-40.394v103.488h-16.524V47.438zM312.163 172.386h25.572c11.828 0 20.245 7.139 20.245 18.859 0 7.778-3.729 13.426-9.483 16.303v.213c7.672 2.132 12.573 9.483 12.573 18.54 0 13.319-9.909 20.991-22.482 20.991h-26.425v-74.906zm25.572 32.498c7.565 0 12.68-5.327 12.68-13.105 0-7.672-4.794-12.786-12.786-12.786h-18.113v25.892h18.219zm.959 35.802c9.058 0 14.704-5.647 14.704-14.598s-6.073-14.811-14.811-14.811h-19.072v29.408h19.179zM377.901 172.386h7.459v48.694c0 12.893 8.311 20.671 21.204 20.671s21.31-7.778 21.31-20.884v-48.481h7.353v48.801c0 16.622-11.614 27.384-28.556 27.384-17.049 0-28.77-10.762-28.77-27.384v-48.801zM456 172.386h7.353v68.3h34.735v6.606H456v-74.906zM511.19 172.386h7.353v68.3h34.735v6.606H511.19v-74.906z"/><path fill="none" stroke-width="4" stroke-linejoin="round" d="M103.789 242.872l-6.807-41.238-28.116 2.566-6.314 38.672H46.767v-36.305h-8.682l-.296 36.305H23.286L5.604 76.752l20.347 64.802 107.138-51.793 18.646-41.198-14.503-45.52 28.708 32.26.001-22.888 20.717 20.225 106.351 1.085v123.12l-111.283 13.417-32.753 72.61h-19.337l.493-45.382-12.331 4.342v41.04h-16.969"/><path fill="none" d="M103.788 242.216l-6.807-41.236-28.116 2.565-6.314 38.671H46.767v-36.304h-8.682l-.296 36.304H23.286L5.604 76.098l20.346 64.801 107.138-51.793 18.646-41.198-14.503-45.519 28.709 32.259V11.76l20.718 20.224 106.351 1.086v123.12l-111.284 13.417-32.753 72.609h-19.336l.492-45.38-12.331 4.342v41.038h-16.968"/><path fill="#0B0A0A" d="M218.033 32.959l-31.375-.32-20.717-20.225v21.311L137.232 3.043l14.503 45.52-18.646 41.197-9.298 4.494c159.786 63.728 94.242-61.295 94.242-61.295zm-58.802 50.488V57.402l30.386 13.022-30.386 13.023z"/><path fill="none" d="M159.231 83.447l30.386-13.022-30.386-13.023z"/><path fill="none" stroke-width="4" stroke-linecap="round" d="M290.64 116.595l-25.257 24.86"/><path fill="#010101" d="M18.748 179.099s58.798 11.492 69.453-66.744L27.43 139.398 5.604 76.752l13.144 102.347z"/><path d="M265.383 33.442l27.626-.372v24.332z"/><path fill="none" stroke-width="3" stroke-linejoin="round" d="M103.789 242.872l-6.807-41.238-28.116 2.566-6.314 38.672H46.767v-36.305h-8.682l-.296 36.305H23.286L5.604 76.752l20.347 64.801L133.089 89.76l18.646-41.198-14.503-45.519 28.708 32.259.001-22.887 20.717 20.224 106.351 1.085v123.121l-111.283 13.416-32.753 72.611h-19.337l.493-45.382-12.331 4.342v41.04h-16.969"/><path fill="none" stroke-width="4" stroke-linecap="round" d="M21.905 244.846h266.523"/></g></svg>