<?xml version="1.0" encoding="utf-8"?>
<!-- Generator: Adobe Illustrator 16.0.0, SVG Export Plug-In . SVG Version: 6.00 Build 0)  -->
<!DOCTYPE svg PUBLIC "-//W3C//DTD SVG 1.1//EN" "http://www.w3.org/Graphics/SVG/1.1/DTD/svg11.dtd">
<svg version="1.1" id="Livello_1" xmlns="http://www.w3.org/2000/svg" xmlns:xlink="http://www.w3.org/1999/xlink" x="0px" y="0px"
	 width="416px" height="162px" viewBox="0 0 416 162" style="enable-background:new 0 0 416 162;" xml:space="preserve">
<style type="text/css">
<![CDATA[
	.st0{fill:#FFFFFF;stroke:#000000;stroke-miterlimit:10;}
	.st1{clip-path:url(#SVGID_4_);fill-rule:evenodd;clip-rule:evenodd;fill:#3B3E40;}
	.st2{clip-path:url(#SVGID_4_);fill:#3B3E40;}
	.st3{fill:#E6E6E6;}
	.st4{fill:#B06310;}
	.st5{fill:#FFFFFF;stroke:#E6E6E6;stroke-width:2;stroke-miterlimit:10;}
	.st6{fill:#F26851;stroke:#000000;stroke-width:2;stroke-miterlimit:10;}
	.st7{fill:none;stroke:#CCCCCC;stroke-miterlimit:10;}
	.st8{opacity:0.4;clip-path:url(#SVGID_4_);}
	.st9{fill:none;stroke:#DDDDDD;stroke-miterlimit:10;}
	.st10{fill:#B73427;}
	.st11{fill:#54657A;}
	.st12{opacity:0.3;fill:#00FF00;}
	.st13{fill:#569CB0;}
	.st14{fill:#8B3929;}
	.st15{fill:none;stroke:#3B3E40;stroke-miterlimit:10;}
	.st16{fill:#F15A24;}
	.st17{fill:#F1C232;}
	.st18{fill:#F26851;}
	.st19{fill:#F2A151;}
	.st20{fill:#24596D;}
	.st21{fill:#F7931E;}
	.st22{fill:#5EC97F;}
	.st23{fill:#F9CB9C;}
	.st24{clip-path:url(#SVGID_4_);}
	.st25{fill:#91AACC;}
	.st26{fill:#FBB040;}
	.st27{fill:#2D5D69;}
	.st28{fill:#2D8230;}
	.st29{fill:#999999;}
	.st30{opacity:0.4;}
	.st31{fill:none;stroke:#000000;stroke-miterlimit:10;}
	.st32{fill:#FFFFFF;}
	.st33{fill:#666666;}
	.st34{fill:#CCCCCC;}
	.st35{clip-path:url(#SVGID_4_);fill-rule:evenodd;clip-rule:evenodd;fill:#F26851;}
	.st36{fill:#333333;}
	.st37{clip-path:url(#SVGID_4_);fill:#F26851;}
	.st38{fill:#0000FF;}
	.st39{fill:#00FFFF;}
	.st40{fill:#6FA8DC;}
	.st41{clip-path:url(#SVGID_4_);fill-rule:evenodd;clip-rule:evenodd;fill:#91AACC;}
	.st42{clip-path:url(#SVGID_4_);fill-rule:evenodd;clip-rule:evenodd;fill:#C3C5C7;}
	.st43{fill:#3B3E40;}
	.st44{clip-path:url(#SVGID_4_);fill-rule:evenodd;clip-rule:evenodd;fill:#FBB040;}
	.st45{fill:#D9E021;}
	.st46{clip-path:url(#SVGID_4_);fill:#FFFFFF;}
	.st47{fill:#A47525;}
	
		.st48{clip-path:url(#SVGID_4_);fill:none;stroke:#C3C5C7;stroke-width:0.24;stroke-linecap:round;stroke-linejoin:round;stroke-miterlimit:10;}
	.st49{stroke:#000000;stroke-width:2;stroke-miterlimit:10;}
	.st50{fill:#DDDDDD;}
]]>
</style>
<g>
	<rect x="-7" y="-3" class="st43" width="430" height="168"/>
	<g>
		<g>
			<path class="st32" d="M145.5,108.4h-8V70.1h8V108.4z M136.4,58.9c0-1.4,0.5-2.6,1.5-3.6c1-1,2.2-1.5,3.6-1.5
				c1.4,0,2.6,0.5,3.6,1.5c1,1,1.5,2.2,1.5,3.6s-0.5,2.6-1.5,3.6c-1,1-2.2,1.5-3.6,1.5c-1.4,0-2.6-0.5-3.6-1.5
				C136.9,61.5,136.4,60.3,136.4,58.9z"/>
			<path class="st32" d="M160,103.5c-3.6-3.6-5.4-8.4-5.4-14.4c0-5.9,1.8-10.7,5.5-14.2c3.7-3.5,8.1-5.3,13.2-5.3
				c5.1,0,9.2,2.2,12.3,6.5V55h8v53.3h-8v-5.8c-3,4.2-7.3,6.3-13,6.3C167.9,108.9,163.6,107.1,160,103.5L160,103.5z M166.2,98.4
				c2.3,2.3,5.1,3.4,8.3,3.4c3.2,0,5.8-1.2,8-3.5c2.2-2.3,3.3-5.3,3.3-8.9s-1.1-6.7-3.3-9.1c-2.2-2.4-4.9-3.7-8.1-3.7
				c-3.2,0-6,1.2-8.3,3.7c-2.3,2.4-3.5,5.5-3.5,9.2C162.7,93.1,163.9,96.1,166.2,98.4L166.2,98.4z"/>
			<path class="st32" d="M241,92.8h-30c0.2,2.8,1.5,5,3.8,6.7c2.3,1.7,5,2.5,8,2.5c4.8,0,8.4-1.5,10.9-4.5l4.6,5
				c-4.1,4.3-9.5,6.4-16.1,6.4c-5.4,0-9.9-1.8-13.7-5.4c-3.8-3.6-5.6-8.4-5.6-14.4c0-6,1.9-10.8,5.7-14.3c3.8-3.5,8.4-5.3,13.5-5.3
				c5.2,0,9.6,1.6,13.3,4.7c3.6,3.1,5.5,7.5,5.5,13V92.8L241,92.8z M211,86.4h21.9c0-3.2-1-5.7-3-7.4c-2-1.7-4.5-2.6-7.4-2.6
				c-2.9,0-5.6,0.9-7.9,2.7C212.2,81,211,83.4,211,86.4L211,86.4z"/>
			<path class="st32" d="M280.8,108.4h-7.3v-5.1c-3.2,3.8-7.4,5.7-12.7,5.7c-4,0-7.3-1.1-9.9-3.4c-2.6-2.3-3.9-5.3-3.9-9
				c0-3.8,1.4-6.6,4.2-8.4c2.8-1.9,6.5-2.8,11.3-2.8h10.4v-1.4c0-5.1-2.8-7.6-8.5-7.6c-3.5,0-7.2,1.3-11.1,3.9l-3.6-5
				c4.6-3.7,9.9-5.5,15.8-5.5c4.5,0,8.2,1.1,11,3.4c2.8,2.3,4.3,5.9,4.3,10.7V108.4L280.8,108.4z M272.7,94.1v-3.2h-9.1
				c-5.8,0-8.7,1.8-8.7,5.5c0,1.9,0.7,3.3,2.2,4.3c1.4,1,3.4,1.5,6,1.5s4.8-0.7,6.7-2.2C271.8,98.5,272.7,96.6,272.7,94.1z"/>
			<path class="st18" d="M301.5,76.6V96c0,1.8,0.5,3.3,1.4,4.3c1,1.1,2.3,1.6,4,1.6c1.7,0,3.4-0.8,5-2.5l3.3,5.7
				c-2.8,2.5-6,3.8-9.4,3.8c-3.4,0-6.3-1.2-8.8-3.6c-2.4-2.4-3.6-5.6-3.6-9.6V76.6h-4.8v-6.5h4.8v-12h8v12h10.1v6.5H301.5z"/>
			<path class="st18" d="M338.9,101.8c3.5,0,6.4-1.2,8.7-3.5c2.3-2.3,3.4-5.3,3.4-9c0-3.7-1.1-6.7-3.4-9c-2.3-2.3-5.2-3.5-8.7-3.5
				c-3.5,0-6.4,1.2-8.7,3.5c-2.3,2.3-3.4,5.3-3.4,9c0,3.7,1.1,6.7,3.4,9C332.5,100.6,335.4,101.8,338.9,101.8z M338.9,108.9
				c-5.8,0-10.5-1.9-14.4-5.7c-3.8-3.8-5.8-8.5-5.8-14c0-5.5,1.9-10.2,5.8-14c3.8-3.8,8.6-5.7,14.4-5.7c5.7,0,10.5,1.9,14.4,5.7
				c3.8,3.8,5.7,8.5,5.7,14c0,5.5-1.9,10.2-5.7,14C349.4,107,344.7,108.9,338.9,108.9z"/>
		</g>
	</g>
	<path class="st18" d="M79.8,84.9l1.3,0.4l-0.8,1.1L67.8,102l9.5,6.9l10.9-16.6l0.8-1.1l0.8,1.1l10.9,16.6l9.5-6.9L97.9,86.5
		l-0.8-1.1l1.3-0.4l19.2-5.3L114,68.5l-18.6,7L94,75.9v-1.4L95,54.7H83.2l0.9,19.9v1.4l-1.3-0.4l-18.6-7l-3.6,11.2L79.8,84.9
		L79.8,84.9z"/>
</g>
</svg>
