<?xml version="1.0" encoding="UTF-8"?>
<svg width="135px" height="136px" viewBox="0 0 135 136" version="1.1" xmlns="http://www.w3.org/2000/svg" xmlns:xlink="http://www.w3.org/1999/xlink" xmlns:sketch="http://www.bohemiancoding.com/sketch/ns">
    <!-- Generator: Sketch 3.1.1 (8761) - http://www.bohemiancoding.com/sketch -->
    <title>Sticker PHPDAY 2016 GO NINJA 2</title>
    <desc>Created with Sketch.</desc>
    <defs>
        <path id="path-1" d="M0,0 L124.696,0 L124.696,144 L0,144 L0,0 Z"></path>
    </defs>
    <g id="Page-1" stroke="none" stroke-width="1" fill="none" fill-rule="evenodd" sketch:type="MSPage">
        <g id="Sticker-PHPDAY-2016-GO-NINJA-2" sketch:type="MSLayerGroup" transform="translate(0.000000, -2.000000)">
            <path d="M10.6689,104.7266 L10.6689,39.2736 L67.3529,6.5456 L124.0369,39.2736 L124.0369,104.7256 L67.3529,137.4536 L10.6689,104.7266 Z" id="Fill-3" fill="#201F4B" sketch:type="MSShapeGroup"></path>
            <rect id="Rectangle-1" stroke="#979797" fill="#201F4B" sketch:type="MSShapeGroup" x="0" y="2" width="135" height="135"></rect>
            <g id="Group-47" transform="translate(5.000000, 0.000000)">
                <path d="M102.9756,47.4048 C100.4576,43.0528 95.7556,40.1228 90.3666,40.1228 C84.9776,40.1228 80.2756,43.0528 77.7576,47.4048 L48.7106,97.6088 C47.1236,100.3568 44.8686,102.4778 42.2686,103.8858 L46.3506,103.8858 C51.7406,103.8858 56.4426,100.9558 58.9606,96.6038 L84.9626,51.5648 C86.6856,48.5788 90.5026,47.5568 93.4876,49.2798 C94.4716,49.8488 95.2416,50.6458 95.7706,51.5648 L108.9446,74.3848 L113.3766,65.4208 L102.9756,47.4048 Z M93.9486,52.6048 C93.5956,51.9918 93.0816,51.4608 92.4256,51.0818 C90.4356,49.9328 87.8916,50.6148 86.7426,52.6048 C85.9726,53.9388 86.0256,55.5198 86.7436,56.7648 L86.7426,56.7648 L97.1436,74.7808 L107.1226,75.4248 L93.9486,52.6048 L93.9486,52.6048 Z M46.9496,96.6038 L75.9966,46.4008 C77.5836,43.6528 79.8386,41.5308 82.4386,40.1228 L78.3556,40.1228 C72.9666,40.1228 68.2646,43.0528 65.7466,47.4048 L39.7446,92.4448 C38.0216,95.4288 34.2046,96.4518 31.2196,94.7288 C30.2356,94.1598 29.4656,93.3628 28.9366,92.4438 L15.7626,69.6238 L11.3296,78.5888 L21.7316,96.6038 C24.2496,100.9558 28.9516,103.8858 34.3406,103.8858 C39.7296,103.8858 44.4316,100.9558 46.9496,96.6038 L46.9496,96.6038 Z M30.7376,91.4048 C31.8856,93.3938 34.4306,94.0758 36.4206,92.9268 C38.4106,91.7788 39.0916,89.2338 37.9436,87.2438 C37.9426,87.2408 37.9396,87.2378 37.9386,87.2358 L27.5416,69.2288 L17.5626,68.5848 L30.7356,91.4018 L30.7376,91.4048 Z" id="Fill-4" fill="#FFFFFF" sketch:type="MSShapeGroup"></path>
                <path d="M14.7866,40.1147 C13.9496,40.1147 13.2896,40.7137 13.2896,41.4757 C13.2896,42.2207 13.9496,42.8367 14.7866,42.8367 C15.6056,42.8367 16.2836,42.2207 16.2836,41.4757 C16.2836,40.7137 15.6056,40.1147 14.7866,40.1147" id="Fill-6" fill="#FFFFFF" sketch:type="MSShapeGroup"></path>
                <path d="M13.4858,51.6011 C13.4858,52.3141 13.1648,52.6221 12.6668,52.6221 C12.3278,52.6221 12.0958,52.5411 11.8818,52.3631 L11.3298,54.1611 C11.7928,54.4531 12.2028,54.5821 12.9868,54.5821 C15.1788,54.5821 16.0698,53.4161 16.0698,51.6011 L16.0698,43.5821 L13.4858,43.5821 L13.4858,51.6011 Z" id="Fill-8" fill="#FFFFFF" sketch:type="MSShapeGroup"></path>
                <path d="M20.6133,49.7705 C19.7583,49.7705 18.7423,49.3165 18.1723,48.8315 L17.1393,50.4675 C17.8873,51.1315 19.1883,51.6015 20.6843,51.6015 C22.8413,51.6015 24.1773,50.5485 24.1773,49.0895 C24.1773,46.0765 19.8653,46.6925 19.8653,45.7855 C19.8653,45.4605 20.2753,45.2185 20.8443,45.2185 C21.7543,45.2185 22.5913,45.6235 23.0013,46.0115 L23.9993,44.3925 C23.1973,43.7925 22.0743,43.3875 20.8093,43.3875 C18.6003,43.3875 17.4603,44.5535 17.4603,45.8665 C17.4603,48.8635 21.7183,48.1345 21.7183,49.1555 C21.7183,49.5275 21.3623,49.7705 20.6133,49.7705" id="Fill-10" fill="#FFFFFF" sketch:type="MSShapeGroup"></path>
                <path d="M29.0425,45.4609 C29.5415,45.4609 30.0755,45.7529 30.3425,46.1739 L30.3425,48.7989 C30.0755,49.2359 29.5415,49.5269 29.0425,49.5269 C28.0985,49.5269 27.5635,48.7009 27.5635,47.4859 C27.5635,46.2879 28.0985,45.4609 29.0425,45.4609 M28.1875,51.6009 C28.9885,51.6009 29.7905,51.2449 30.3425,50.4829 L30.3425,51.4069 L32.9095,51.4069 L32.9095,40.6009 L30.3425,40.6009 L30.3425,44.5049 C29.8265,43.7279 28.9885,43.3869 28.1875,43.3869 C26.2265,43.3869 24.9265,44.9419 24.9265,47.4859 C24.9265,50.1109 26.2445,51.6009 28.1875,51.6009" id="Fill-12" fill="#FFFFFF" sketch:type="MSShapeGroup"></path>
                <path d="M36.8291,47.4863 C36.8291,46.2873 37.3641,45.4613 38.3081,45.4613 C38.8071,45.4613 39.3421,45.7683 39.6091,46.1903 L39.6091,48.7993 C39.3421,49.2363 38.8071,49.5273 38.3081,49.5273 C37.3641,49.5273 36.8291,48.7013 36.8291,47.4863 M39.6091,50.4833 L39.6091,51.4073 L42.1751,51.4073 L42.1751,43.5823 L39.5911,43.5823 L39.5911,44.5053 C39.0741,43.7273 38.2551,43.3873 37.4531,43.3873 C35.4931,43.3873 34.1921,44.9423 34.1921,47.4863 C34.1921,50.1113 35.5111,51.6013 37.4531,51.6013 C38.2551,51.6013 39.0571,51.2453 39.6091,50.4833" id="Fill-14" fill="#FFFFFF" sketch:type="MSShapeGroup"></path>
                <path d="M48.8042,43.582 L47.2182,48.588 L45.6682,43.582 L42.9422,43.582 L45.8992,51.537 L45.7032,52.055 C45.5612,52.379 45.2402,52.509 44.7592,52.509 C44.5992,52.509 44.3672,52.477 44.2242,52.395 L43.8512,54.453 C44.1172,54.534 44.7062,54.582 44.9912,54.582 C46.5412,54.566 47.5572,54.177 48.1622,52.573 L51.5302,43.582 L48.8042,43.582 Z" id="Fill-16" fill="#FFFFFF" sketch:type="MSShapeGroup"></path>
                <path d="M18.2324,54.2803 C17.6784,54.2803 17.2254,53.9023 17.2254,53.4413 C17.2254,52.9793 17.6784,52.5993 18.2324,52.5993 C18.7864,52.5993 19.2424,52.9793 19.2424,53.4413 C19.2424,53.9023 18.7864,54.2803 18.2324,54.2803 M18.2324,52.5103 C17.6174,52.5103 17.1154,52.9253 17.1154,53.4413 C17.1154,53.9533 17.6174,54.3723 18.2324,54.3723 C18.8514,54.3723 19.3504,53.9533 19.3504,53.4413 C19.3504,52.9253 18.8514,52.5103 18.2324,52.5103" id="Fill-18" fill="#FFFFFF" sketch:type="MSShapeGroup"></path>
                <path d="M18.2456,53.9155 C17.9576,53.9155 17.7046,53.7125 17.7046,53.4375 C17.7046,53.1545 17.9576,52.9625 18.2456,52.9625 C18.3976,52.9625 18.5466,53.0245 18.6306,53.1195 L18.7216,53.0435 C18.6086,52.9335 18.4466,52.8665 18.2456,52.8665 C17.8726,52.8665 17.5716,53.1065 17.5716,53.4375 C17.5716,53.7645 17.8726,54.0125 18.2456,54.0125 C18.4466,54.0125 18.6086,53.9455 18.7246,53.8325 L18.6306,53.7595 C18.5466,53.8535 18.4006,53.9155 18.2456,53.9155" id="Fill-20" fill="#FFFFFF" sketch:type="MSShapeGroup"></path>
                <path d="M21.0933,53.646 L21.5473,53.646 L21.5473,53.98 C21.4753,54.048 21.3463,54.11 21.1873,54.11 C20.8793,54.11 20.6723,53.851 20.6723,53.444 C20.6723,53.033 20.8793,52.777 21.1873,52.777 C21.3753,52.777 21.5053,52.877 21.5823,53.009 L21.8743,52.896 C21.7513,52.686 21.5373,52.513 21.1873,52.513 C20.6563,52.513 20.3063,52.885 20.3063,53.444 C20.3063,54 20.6563,54.377 21.1873,54.377 C21.4853,54.377 21.7153,54.27 21.8873,54.099 L21.8873,53.384 L21.0933,53.384 L21.0933,53.646 Z" id="Fill-22" fill="#FFFFFF" sketch:type="MSShapeGroup"></path>
                <path d="M22.9468,53.3975 L22.6138,53.3975 L22.6138,52.8045 L22.9468,52.8045 C23.1378,52.8045 23.2608,52.9225 23.2608,53.1005 C23.2608,53.2785 23.1378,53.3975 22.9468,53.3975 M23.6268,53.0985 C23.6268,52.7665 23.3708,52.5425 22.9988,52.5425 L22.2538,52.5425 L22.2538,54.3425 L22.6138,54.3425 L22.6138,53.6625 L22.8788,53.6625 L23.2448,54.3425 L23.6468,54.3425 L23.2288,53.6105 C23.4198,53.5675 23.6268,53.4135 23.6268,53.0985" id="Fill-24" fill="#FFFFFF" sketch:type="MSShapeGroup"></path>
                <path d="M25.124,53.7402 C25.124,53.9802 24.981,54.1102 24.732,54.1102 C24.482,54.1102 24.34,53.9802 24.34,53.7402 L24.34,52.5422 L23.98,52.5422 L23.98,53.7382 C23.98,54.1452 24.266,54.3742 24.732,54.3742 C25.199,54.3742 25.483,54.1452 25.483,53.7382 L25.483,52.5422 L25.124,52.5422 L25.124,53.7402 Z" id="Fill-26" fill="#FFFFFF" sketch:type="MSShapeGroup"></path>
                <path d="M26.1934,52.998 C26.1934,52.866 26.3134,52.779 26.4874,52.779 C26.6564,52.779 26.8184,52.828 26.9444,52.934 L27.1194,52.707 C26.9644,52.583 26.7504,52.513 26.4974,52.513 C26.0894,52.513 25.8274,52.734 25.8274,53.015 C25.8274,53.613 26.7964,53.5 26.7964,53.87 C26.7964,53.997 26.6824,54.107 26.4594,54.107 C26.2444,54.107 26.0604,54.024 25.9434,53.913 L25.7624,54.145 C25.9214,54.286 26.1514,54.374 26.4594,54.374 C26.9224,54.374 27.1614,54.14 27.1614,53.846 C27.1614,53.241 26.1934,53.32 26.1934,52.998" id="Fill-28" fill="#FFFFFF" sketch:type="MSShapeGroup"></path>
                <path d="M28.166,53.3975 L27.833,53.3975 L27.833,52.8045 L28.166,52.8045 C28.357,52.8045 28.48,52.9225 28.48,53.1005 C28.48,53.2785 28.357,53.3975 28.166,53.3975 M28.208,52.5425 L27.473,52.5425 L27.473,54.3425 L27.833,54.3425 L27.833,53.6625 L28.208,53.6625 C28.632,53.6625 28.846,53.4025 28.846,53.1005 C28.846,52.8015 28.632,52.5425 28.208,52.5425" id="Fill-30" fill="#FFFFFF" sketch:type="MSShapeGroup"></path>
                <path d="M29.0283,54.0078 C28.9113,54.0078 28.8113,54.0908 28.8113,54.1878 C28.8113,54.2878 28.9113,54.3718 29.0283,54.3718 C29.1483,54.3718 29.2453,54.2878 29.2453,54.1878 C29.2453,54.0908 29.1483,54.0078 29.0283,54.0078" id="Fill-32" fill="#FFFFFF" sketch:type="MSShapeGroup"></path>
                <path d="M30.4111,54.1074 C30.0881,54.1074 29.9121,53.8154 29.9121,53.4434 C29.9121,53.0654 30.0881,52.7764 30.4111,52.7764 C30.7321,52.7764 30.9111,53.0654 30.9111,53.4434 C30.9111,53.8154 30.7321,54.1074 30.4111,54.1074 M30.4111,52.5124 C29.8641,52.5124 29.5461,52.9154 29.5461,53.4434 C29.5461,53.9724 29.8641,54.3744 30.4111,54.3744 C30.9591,54.3744 31.2761,53.9724 31.2761,53.4434 C31.2761,52.9154 30.9591,52.5124 30.4111,52.5124" id="Fill-34" fill="#FFFFFF" sketch:type="MSShapeGroup"></path>
                <path d="M32.3032,53.3975 L31.9702,53.3975 L31.9702,52.8045 L32.3032,52.8045 C32.4952,52.8045 32.6182,52.9225 32.6182,53.1005 C32.6182,53.2785 32.4952,53.3975 32.3032,53.3975 M32.9842,53.0985 C32.9842,52.7665 32.7272,52.5425 32.3562,52.5425 L31.6112,52.5425 L31.6112,54.3425 L31.9702,54.3425 L31.9702,53.6625 L32.2352,53.6625 L32.6022,54.3425 L33.0032,54.3425 L32.5852,53.6105 C32.7772,53.5675 32.9842,53.4135 32.9842,53.0985" id="Fill-36" fill="#FFFFFF" sketch:type="MSShapeGroup"></path>
                <path d="M34.0435,53.646 L34.4975,53.646 L34.4975,53.98 C34.4255,54.048 34.2955,54.11 34.1375,54.11 C33.8305,54.11 33.6225,53.851 33.6225,53.444 C33.6225,53.033 33.8305,52.777 34.1375,52.777 C34.3255,52.777 34.4545,52.877 34.5325,53.009 L34.8245,52.896 C34.7015,52.686 34.4875,52.513 34.1375,52.513 C33.6055,52.513 33.2565,52.885 33.2565,53.444 C33.2565,54 33.6055,54.377 34.1375,54.377 C34.4355,54.377 34.6655,54.27 34.8365,54.099 L34.8365,53.384 L34.0435,53.384 L34.0435,53.646 Z" id="Fill-38" fill="#FFFFFF" sketch:type="MSShapeGroup"></path>
                <path d="M36.8394,53.6377 L36.3764,52.5417 L35.8904,52.5417 L35.8904,54.3427 L36.2504,54.3427 L36.2504,53.1007 L36.7684,54.3427 L36.9074,54.3427 L37.4324,53.1007 L37.4324,54.3427 L37.7884,54.3427 L37.7884,52.5417 L37.3064,52.5417 L36.8394,53.6377 Z" id="Fill-40" fill="#FFFFFF" sketch:type="MSShapeGroup"></path>
                <path d="M39.1494,53.6377 L38.6864,52.5417 L38.2004,52.5417 L38.2004,54.3427 L38.5604,54.3427 L38.5604,53.1007 L39.0784,54.3427 L39.2174,54.3427 L39.7424,53.1007 L39.7424,54.3427 L40.0984,54.3427 L40.0984,52.5417 L39.6154,52.5417 L39.1494,53.6377 Z" id="Fill-42" fill="#FFFFFF" sketch:type="MSShapeGroup"></path>
                <mask id="mask-2" sketch:name="Clip 45" fill="white">
                    <use xlink:href="#path-1"></use>
                </mask>
                <g id="Clip-45"></g>
                <path d="M40.511,54.342 L40.87,54.342 L40.87,52.542 L40.511,52.542 L40.511,54.342 Z" id="Fill-44" fill="#FFFFFF" sketch:type="MSShapeGroup" mask="url(#mask-2)"></path>
                <path d="M41.9458,53.9883 L41.4728,52.5423 L41.0838,52.5423 L41.7288,54.3423 L42.1598,54.3423 L42.8038,52.5423 L42.4158,52.5423 L41.9458,53.9883 Z" id="Fill-46" fill="#FFFFFF" sketch:type="MSShapeGroup" mask="url(#mask-2)"></path>
            </g>
        </g>
    </g>
</svg>