<?xml version="1.0" encoding="UTF-8"?>
<svg width="842px" height="596px" viewBox="0 0 842 596" version="1.1" xmlns="http://www.w3.org/2000/svg" xmlns:xlink="http://www.w3.org/1999/xlink" xmlns:sketch="http://www.bohemiancoding.com/sketch/ns">
    <!-- Generator: Sketch 3.1.1 (8761) - http://www.bohemiancoding.com/sketch -->
    <title>KE KERNING LOGO RGB</title>
    <desc>Created with Sketch.</desc>
    <defs></defs>
    <g id="Page-1" stroke="none" stroke-width="1" fill="none" fill-rule="evenodd" sketch:type="MSPage">
        <g id="KE-KERNING-LOGO-RGB" sketch:type="MSLayerGroup" transform="translate(0.000000, 1.000000)">
            <path d="M0,595 L841.89,595 L841.89,-0.281 L0,-0.281 L0,595 Z" id="Fill-1" fill="#FFFFFF" sketch:type="MSShapeGroup"></path>
            <g id="Group-20" transform="translate(208.000000, 115.000000)" sketch:type="MSShapeGroup">
                <path d="M147.8979,329.8857 L133.6369,329.8857 L133.6409,314.1297 L147.8979,314.1357 C153.0529,314.1297 156.4279,317.1297 156.4279,322.0107 C156.4279,326.6977 153.0479,329.8857 147.8979,329.8857 L147.8979,329.8857 Z M157.6469,340.6727 C166.4649,338.1417 172.7399,331.0167 172.7399,321.5417 C172.7399,307.1937 162.9949,300.4437 148.1719,300.4437 L117.8819,300.4437 L117.8819,364.2087 L133.6369,364.2147 L133.6409,341.6107 L140.0159,341.6107 L159.4309,364.2087 L176.2189,364.2087 L176.2189,361.2147 L157.6469,340.6727 Z" id="Fill-2" fill="#000000"></path>
                <path d="M232.7021,339.1787 L200.5351,300.4437 L186.8451,300.4437 L186.8451,364.2087 L202.5971,364.2147 L202.5971,325.4857 L234.7591,364.2147 L248.4581,364.2147 L248.4581,300.4437 L232.7021,300.4437 L232.7021,339.1787 Z" id="Fill-4" fill="#000000"></path>
                <path d="M60.2944,300.4434 L41.1214,300.4434 L25.1434,324.3604 L18.0654,324.3604 L18.0654,300.4434 L0.3524,300.4434 L0.3524,364.2094 L18.0654,364.2094 L18.0654,340.2974 L25.1434,340.2974 L41.1264,364.2094 L60.2944,364.2144 L38.9914,332.3294 L60.2944,300.4434 Z" id="Fill-6" fill="#000000"></path>
                <path d="M262.7949,364.2148 L278.5539,364.2088 L278.5539,300.4438 L262.7949,300.4438 L262.7949,364.2148 Z" id="Fill-8" fill="#000000"></path>
                <path d="M395.3877,338.5107 L410.6577,338.5107 L410.6577,347.8677 C407.3727,349.5557 403.2537,350.5867 399.1377,350.5867 C388.1777,350.5867 380.4067,343.9367 380.4117,332.4227 C380.4067,320.7157 388.1777,314.0657 398.3817,314.0657 C405.4097,314.0657 411.1227,316.2217 415.8897,319.9657 L423.0997,308.0777 C416.7337,303.0157 408.3987,299.5527 398.1007,299.5527 C379.2787,299.5527 364.2047,311.7217 364.2047,332.4227 C364.2047,352.9247 379.2787,365.1057 398.1007,365.0997 C407.8447,365.1057 419.6367,360.9807 425.5417,356.2047 L425.5417,326.5227 L395.3877,326.5227 L395.3877,338.5107 Z" id="Fill-10" fill="#000000"></path>
                <path d="M338.7578,339.1787 L306.5908,300.4437 L292.8978,300.4437 L292.8978,364.2087 L308.6508,364.2147 L308.6508,325.4857 L340.8188,364.2147 L354.5108,364.2087 L354.5108,300.4437 L338.7578,300.4437 L338.7578,339.1787 Z" id="Fill-12" fill="#000000"></path>
                <path d="M98.7256,300.4434 L79.5496,300.4434 L58.2456,332.3294 L79.5496,364.2094 L98.7256,364.2094 L82.7476,340.2974 L103.5436,340.2974 L103.5436,324.3604 L82.7476,324.3604 L98.7256,300.4434 Z" id="Fill-14" fill="#E13423"></path>
                <path d="M168.3457,262.3838 L247.3507,262.3838 L159.5667,130.9968 L247.3477,-0.3842 L168.3457,-0.3842 L102.5017,98.1528 L73.3437,98.1528 L73.3437,-0.3802 L0.3527,-0.3842 L0.3527,262.3778 L73.3437,262.3778 L73.3437,163.8418 L102.5067,163.8418 L168.3457,262.3838 Z" id="Fill-16" fill="#000000"></path>
                <path d="M425.542,98.1528 L339.852,98.1528 L405.694,-0.3842 L326.688,-0.3842 L238.898,130.9968 L326.688,262.3838 L405.694,262.3838 L339.852,163.8418 L425.536,163.8418 L425.542,98.1528 Z" id="Fill-18" fill="#E13423"></path>
            </g>
        </g>
    </g>
</svg>