<svg xmlns="http://www.w3.org/2000/svg" viewBox="0 0 3010.06 1280"><defs><style>.cls-1{fill:#065da9;}.cls-2{fill:#5887c0;}.cls-3{fill:#8eaed4;}</style></defs><title>Tavola disegno 1</title><g id="Logotipo"><path class="cls-1" d="M1464,168.35l30.3-151h83.59V383.08h-58.52V208.58c0-39.71,1.57-74.71,3.66-114.42-5.75,39.71-11.49,73.67-18.81,113.9l-36,175h-47l-36-175c-7.31-40.23-13.06-74.19-18.81-113.9,2.09,39.71,3.66,74.71,3.66,114.42v174.5h-50.16V17.36H1404l30.3,151c5.75,29.78,12,65.31,14.63,97.18C1452,233.66,1458.3,198.13,1464,168.35Z"/><path class="cls-1" d="M1623.91,17.36H1684V383.08h-60.08Z"/><path class="cls-1" d="M1728.93,17.36H1789V330.84h77.32v52.25H1728.93Z"/><path class="cls-1" d="M2004.26,329.27h-70l-8.88,53.81h-54.86l63.22-365.72h76.8l63.22,365.72h-60.08Zm-61.65-50.16h53.29l-10.45-64.26c-5.22-33.44-11.49-75.76-16.2-127-4.7,51.2-11,93.52-16.2,127Z"/><path class="cls-1" d="M2293.18,17.36V383.08h-70.53l-53.81-191.22c-6.27-24-14.11-58.52-20.38-83.59,1.57,25.08,3.66,61.13,3.66,84.64V383.08h-50.68V17.36h78.89l46,160.4c6.27,25.08,14.11,58.52,19.85,84.12-1-25.6-3.13-61.13-3.13-84.64V17.36Z"/><path class="cls-1" d="M2332.36,108.27c0-66.87,32.39-96.66,90.91-96.66s91.43,29.78,91.43,96.66V292.17c0,66.88-32.92,96.66-91.43,96.66s-90.91-29.78-90.91-96.66Zm90.91,228.32c21.94,0,31.35-12,31.35-36V99.91c0-24-9.4-36-31.35-36s-30.83,12-30.83,36V300.53C2392.45,324.57,2401.33,336.58,2423.27,336.58Z"/><path class="cls-2" d="M1380.45,821.08h-60.08V455.36h137.41v52.25h-77.32v104h66.88v52.77h-66.87Z"/><path class="cls-2" d="M1545,665.91V821.08h-60.08V455.36h89.34c47,0,90.91,9.4,90.91,84.64v27.17c0,44.93-17.24,64.26-40.75,72.62,24,9.4,40.75,29.78,40.75,75.76v11c0,66.35,5.75,78.37,14.11,94.57h-64.79c-3.66-11-9.4-29.26-9.4-74.71V719.2c0-41.8-11-53.29-45.45-53.29Zm24-52.77c26.65,0,36-8.36,36-35v-35c0-26.65-9.4-35.53-36-35.53h-24V613.14Z"/><path class="cls-2" d="M1700.71,546.27c0-66.88,32.39-96.66,90.91-96.66S1883,479.39,1883,546.27V730.17c0,66.88-32.92,96.66-91.43,96.66s-90.91-29.78-90.91-96.66Zm90.91,228.32c21.94,0,31.35-12,31.35-36V537.91c0-24-9.4-36-31.35-36s-30.83,12-30.83,36V738.53C1760.79,762.57,1769.67,774.58,1791.62,774.58Z"/><path class="cls-2" d="M2113.45,455.36V821.08h-70.53L1989.1,629.86c-6.27-24-14.11-58.52-20.38-83.59,1.57,25.08,3.66,61.13,3.66,84.64V821.08h-50.68V455.36h78.89l46,160.4c6.27,25.08,14.11,58.52,19.85,84.12-1-25.6-3.13-61.13-3.13-84.64V455.36Z"/><path class="cls-2" d="M2306.76,507.61h-55.38V821.08h-60.08V507.61h-55.38V455.36h170.84Z"/><path class="cls-2" d="M2448.86,768.84h83.59v52.25H2388.78V455.36h141.06v52.25h-81v96.66h70.53V657h-70.53Z"/><path class="cls-2" d="M2758.15,455.36V821.08h-70.53l-53.81-191.22c-6.27-24-14.11-58.52-20.38-83.59,1.57,25.08,3.66,61.13,3.66,84.64V821.08h-50.68V455.36h78.89l46,160.4c6.27,25.08,14.11,58.52,19.85,84.12-1-25.6-3.13-61.13-3.13-84.64V455.36Z"/><path class="cls-2" d="M2803.6,455.36h85.16c47,0,94.57,15.67,94.57,90.91V730.17c0,75.23-47.54,90.91-94.57,90.91H2803.6Zm60.08,52.25V768.84h22.47c26.65,0,37.09-9.93,37.09-37.09v-187c0-27.17-10.45-37.09-37.09-37.09Z"/><path class="cls-3" d="M1464,1047.85l30.3-151h83.59v365.72h-58.52v-174.5c0-39.71,1.57-74.71,3.66-114.42-5.75,39.71-11.49,73.67-18.81,113.9l-36,175h-47l-36-175c-7.31-40.23-13.06-74.19-18.81-113.9,2.09,39.71,3.66,74.71,3.66,114.42v174.5h-50.16V896.86H1404l30.3,151c5.75,29.78,12,65.31,14.63,97.18C1452,1113.16,1458.3,1077.63,1464,1047.85Z"/><path class="cls-3" d="M1684.52,1210.34h83.59v52.25H1624.43V896.86H1765.5v52.25h-81v96.66H1755v52.77h-70.53Z"/><path class="cls-3" d="M1863.67,1210.34h83.59v52.25H1803.59V896.86h141.06v52.25h-81v96.66h70.53v52.77h-70.53Z"/><path class="cls-3" d="M2145.12,949.11h-55.38v313.48h-60.08V949.11h-55.38V896.86h170.84Z"/><path class="cls-3" d="M2256.4,1216.08c21.42,0,30.83-11,30.83-34.48V896.86h55.9v280c0,63.22-31.87,91.43-88.82,91.43S2165,1240.12,2165,1176.9v-280h60.08V1181.6C2225.06,1205.11,2234.46,1216.08,2256.4,1216.08Z"/><path class="cls-3" d="M2445.53,1262.58h-60.08V896.86h84.12c47,0,94.57,15.67,94.57,90.91v59.56c0,75.23-47.54,91.43-94.57,91.43h-24Zm0-313.48V1086h21.42c26.65,0,37.09-9.93,37.09-36.57V986.2c0-27.17-10.45-37.09-37.09-37.09Z"/></g><g id="Pittogramma"><path class="cls-1" d="M803.36,97.43h379.21V476.64A79.77,79.77,0,0,0,1205,532l57.57,59.63V54.6a37.13,37.13,0,0,0-37.13-37.13H688.32L748,75A79.77,79.77,0,0,0,803.36,97.43Z"/><path class="cls-3" d="M97.43,480.68V97.43H482.35A79.77,79.77,0,0,0,537.76,75l59.63-57.57H60.31A43,43,0,0,0,17.47,60.31V591.68L73,538.1A79.77,79.77,0,0,0,97.43,480.68Z"/><path class="cls-1" d="M486.39,1182.57h-389v-389A79.77,79.77,0,0,0,73,736.19L17.47,682.61v537.08a43,43,0,0,0,42.84,42.84H597.39L543.81,1207A79.77,79.77,0,0,0,486.39,1182.57Z"/><path class="cls-3" d="M1182.57,797.65v384.92H799.32A79.77,79.77,0,0,0,741.9,1207l-53.57,55.56H1225.4a37.13,37.13,0,0,0,37.13-37.13V682.61L1205,742.24A79.77,79.77,0,0,0,1182.57,797.65Z"/><rect class="cls-1" x="595.37" y="220.22" width="100.68" height="833.85"/><rect class="cls-2" x="419.75" y="418.82" width="100.68" height="635.25"/><rect class="cls-2" x="765.28" y="418.82" width="100.68" height="635.25"/><rect class="cls-3" x="936.51" y="641.56" width="100.68" height="412.51"/><rect class="cls-3" x="248.52" y="641.56" width="100.68" height="412.51"/></g></svg>