<?xml version="1.0" encoding="utf-8"?>
<!-- Generator: Adobe Illustrator 19.2.0, SVG Export Plug-In . SVG Version: 6.00 Build 0)  -->
<svg version="1.1" id="Livello_1" xmlns="http://www.w3.org/2000/svg" xmlns:xlink="http://www.w3.org/1999/xlink" x="0px" y="0px"
	 viewBox="0 0 1280 1280" style="enable-background:new 0 0 1280 1280;" xml:space="preserve">
<style type="text/css">
	.st0{fill:#065DA9;}
	.st1{fill:#8EAED4;}
	.st2{fill:#5887C0;}
</style>
<g>
	<g>
		<path class="st0" d="M803.4,97.4h379.2v379.2c0,20.7,8,40.5,22.4,55.4l57.6,59.6V54.6c0-20.5-16.6-37.1-37.1-37.1H688.3L748,75
			C762.8,89.4,782.7,97.4,803.4,97.4z"/>
		<path class="st1" d="M97.4,480.7V97.4h384.9c20.7,0,40.5-8,55.4-22.4l59.6-57.6H60.3c-23.6,0-42.8,19.3-42.8,42.8v531.4L73,538.1
			C88.6,523.1,97.4,502.3,97.4,480.7z"/>
		<path class="st0" d="M486.4,1182.6h-389v-389c0-21.7-8.8-42.4-24.4-57.4l-55.6-53.6v537.1c0,23.6,19.3,42.8,42.8,42.8h537.1
			l-53.6-55.6C528.8,1191.4,508,1182.6,486.4,1182.6z"/>
		<path class="st1" d="M1182.6,797.7v384.9H799.3c-21.7,0-42.4,8.8-57.4,24.4l-53.6,55.6h537.1c20.5,0,37.1-16.6,37.1-37.1V682.6
			l-57.6,59.6C1190.6,757.1,1182.6,777,1182.6,797.7z"/>
	</g>
	<rect x="595.4" y="220.2" class="st0" width="100.7" height="833.8"/>
	<rect x="419.8" y="418.8" class="st2" width="100.7" height="635.2"/>
	<rect x="765.3" y="418.8" class="st2" width="100.7" height="635.2"/>
	<rect x="936.5" y="641.6" class="st1" width="100.7" height="412.5"/>
	<rect x="248.5" y="641.6" class="st1" width="100.7" height="412.5"/>
</g>
</svg>
